<svg width="26" height="27" viewBox="0 0 26 27" fill="none" xmlns="http://www.w3.org/2000/svg">
<path d="M13 6.55556C14.695 6.55556 16.069 5.3119 16.069 3.77778C16.069 2.24365 14.695 1 13 1C11.305 1 9.93091 2.24365 9.93091 3.77778C9.93091 5.3119 11.305 6.55556 13 6.55556Z" stroke="white" stroke-opacity="0.96" stroke-width="2" stroke-miterlimit="10" stroke-linecap="round"/>
<path d="M13 18.0694L13 24.8333C13 25.4722 13.5831 26 14.289 26L14.7647 26C15.4706 26 16.0537 25.4722 16.0537 24.8333L16.0537 21.9722L16.0537 12.125C16.0537 11.25 16.8363 10.5416 17.8031 10.5416L22.4527 10.5416L23.7877 10.5416C24.4476 10.5416 25 10.0555 25 9.4444L25 9.38885C25 8.79163 24.4629 8.29163 23.7877 8.29163L8.04347 8.29163L2.21228 8.29163C1.55243 8.29163 1 8.77774 1 9.38885L1 9.4444C1 10.0416 1.53709 10.5416 2.21228 10.5416L8.81074 10.5416C9.42455 10.5416 9.93095 11 9.93095 11.5555L9.93095 15.7361L9.93095 24.8333C9.93095 25.4722 10.5141 26 11.2199 26L11.6957 26C12.4015 26 12.9847 25.4722 12.9847 24.8333" stroke="white" stroke-opacity="0.96" stroke-width="2" stroke-miterlimit="10" stroke-linecap="round"/>
</svg>
